Coordinates
version=1
nRows=11
nColumns=40
inDegrees=yes

Units are S.I. units (second, meters, Newtons, ...)
Angles are in degrees.

endheader
time	pelvis_tilt	pelvis_list	pelvis_rotation	pelvis_tx	pelvis_ty	pelvis_tz	hip_flexion_r	hip_adduction_r	hip_rotation_r	knee_angle_r	knee_angle_r_beta	ankle_angle_r	subtalar_angle_r	mtp_angle_r	hip_flexion_l	hip_adduction_l	hip_rotation_l	knee_angle_l	knee_angle_l_beta	ankle_angle_l	subtalar_angle_l	mtp_angle_l	lumbar_extension	lumbar_bending	lumbar_rotation	arm_flex_r	arm_add_r	arm_rot_r	elbow_flex_r	pro_sup_r	wrist_flex_r	wrist_dev_r	arm_flex_l	arm_add_l	arm_rot_l	elbow_flex_l	pro_sup_l	wrist_flex_l	wrist_dev_l
     14.92000000	     -4.72991555	     -6.78984094	      1.65308865	      1.01541067	      0.93068406	      0.49441137	     10.33162246	      4.84541529	    -17.97780254	     11.06004447	     11.06004447	      7.60865240	      5.24984834	     -5.29437259	     33.53579724	    -12.91688345	      5.13915864	     67.99540800	     67.99540800	      9.44548030	    -18.47305294	     11.50683477	    -11.64303158	      7.85673718	      4.49432520	     16.81091873	    -17.36719774	     -1.77698565	     39.45064471	     45.58717759	      0.00000000	      0.00000000	      8.51945074	     -9.13544618	      0.92643095	     50.05519301	     45.75634655	      0.00000000	      0.00000000
     14.93142857	     -4.76803424	     -6.67749716	      1.87340858	      1.01353869	      0.93072582	      0.49513180	      9.86711220	      4.82732341	    -17.81360594	     10.96489124	     10.96489124	      7.95296686	      4.88350295	     -5.44357026	     35.03256229	    -12.69995182	      4.90292487	     66.47753979	     66.47753979	      9.65787493	    -18.64951175	     11.87068139	    -11.77887400	      7.61593722	      4.32410599	     19.38341180	    -17.46104403	     -1.92122649	     40.49202595	     45.57411291	      0.00000000	      0.00000000	      6.88949074	     -9.08441534	      1.12166519	     48.07987741	     45.71947288	      0.00000000	      0.00000000
     14.94285714	     -4.78496100	     -6.58647311	      2.11822280	      1.01169119	      0.93073373	      0.49581549	      9.35797058	      4.84839785	    -17.65406749	     10.80671767	     10.80671767	      8.29956960	      4.52022864	     -5.52898987	     36.34618676	    -12.46720058	      4.68234239	     64.71692871	     64.71692871	      9.85508254	    -18.72462460	     12.41232422	    -11.93953436	      7.40885151	      3.91637415	     22.10069499	    -17.37987351	     -1.88625343	     41.41544674	     45.55739415	      0.00000000	      0.00000000	      5.55013408	     -9.01997128	      1.30568487	     44.95125161	     45.68405367	      0.00000000	      0.00000000
     14.95428571	     -4.80610524	     -6.48294721	      2.33963660	      1.00993907	      0.93074773	      0.49631153	      8.84931768	      4.83935822	    -17.50759279	     10.64878473	     10.64878473	      8.60469075	      4.19154517	     -5.54704773	     37.45215159	    -12.16184533	      4.44795140	     62.68095296	     62.68095296	     10.10335926	    -18.79855456	     13.15412247	    -12.05966216	      7.28680901	      3.71590257	     24.74908341	    -17.39861885	     -1.67791645	     41.99965502	     45.54519428	      0.00000000	      0.00000000	      4.68899139	     -8.77602443	      1.42373339	     40.95488083	     45.66410695	      0.00000000	      0.00000000
     14.96571429	     -4.89309681	     -6.41194603	      2.52877193	      1.00822410	      0.93061087	      0.49677829	      8.43217140	      4.85550796	    -17.38952625	     10.52448818	     10.52448818	      8.96331488	      3.93542248	     -5.49199428	     38.48320180	    -11.83924361	      4.26624667	     60.42712866	     60.42712866	     10.41309954	    -18.80749611	     14.34026644	    -12.04480841	      7.10981142	      4.26845655	     27.10213650	    -18.04737492	     -1.10326110	     41.77827106	     45.54979054	      0.00000000	      0.00000000	      5.15541501	     -7.90919552	      1.03676011	     34.77921694	     45.75976263	      0.00000000	      0.00000000
     14.97714286	     -4.91102694	     -6.27902257	      2.71626608	      1.00666508	      0.93049899	      0.49709538	      7.91484780	      4.79835393	    -17.30283219	     10.37283676	     10.37283676	      9.32574969	      3.78343533	     -5.51244697	     39.19703175	    -11.42773439	      4.07098832	     57.84256370	     57.84256370	     10.42115531	    -18.79588107	     14.67506565	    -12.21729571	      6.87987024	      4.06197670	     29.33706260	    -18.03245022	     -1.19614233	     43.01698521	     45.52373879	      0.00000000	      0.00000000	      3.73451779	     -7.89928783	      1.02170813	     32.96570894	     45.74979292	      0.00000000	      0.00000000
     14.98857143	     -5.00671093	     -6.23884634	      2.90230620	      1.00521693	      0.93017125	      0.49726511	      7.47295073	      4.83064363	    -17.22851102	     10.20528409	     10.20528409	      9.69176019	      3.64343486	     -5.42223742	     39.86076498	    -11.04498452	      4.00958586	     55.04266899	     55.04266899	     10.33755856	    -18.66988190	     14.63722770	    -12.20147059	      6.78627851	      4.21214029	     31.42613509	    -18.37420907	     -0.87356643	     43.89038319	     45.49740950	      0.00000000	      0.00000000	      3.50210270	     -7.44039075	      0.55384935	     28.48816247	     45.86293771	      0.00000000	      0.00000000
     15.00000000	     -5.06339817	     -6.11932624	      3.07835907	      1.00394871	      0.92987734	      0.49726420	      6.96315140	      4.76785364	    -17.18022034	     10.02741213	     10.02741213	     10.05730581	      3.54007012	     -5.47415485	     40.26059134	    -10.52648331	      4.00576396	     51.98208658	     51.98208658	     10.31545243	    -18.46760836	     14.79025767	    -12.26452188	      6.59073905	      4.11814732	     33.38710959	    -18.40260852	     -0.98363154	     45.14632265	     45.46972450	      0.00000000	      0.00000000	      2.08878397	     -7.46739406	      0.48302052	     27.18828051	     45.85990056	      0.00000000	      0.00000000
     15.01142857	     -5.18919723	     -6.07744406	      3.25078801	      1.00275511	      0.92935095	      0.49710237	      6.49298885	      4.78520119	    -17.15573242	      9.77947955	      9.77947955	     10.39562443	      3.54282404	     -5.50321187	     40.60727650	    -10.02827281	      4.17227457	     48.76947272	     48.76947272	     10.19725641	    -18.09332100	     14.43689057	    -12.27537749	      6.50881775	      3.87858008	     35.34894198	    -18.34166071	     -0.97324061	     46.68341637	     45.42718011	      0.00000000	      0.00000000	      0.82663266	     -7.40674938	      0.38350664	     25.35512219	     45.87395882	      0.00000000	      0.00000000
     15.02285714	     -5.32462827	     -5.97913580	      3.36611846	      1.00175695	      0.92880719	      0.49688359	      6.03699797	      4.72978430	    -17.07917995	      9.58044137	      9.58044137	     10.75459006	      3.52201712	     -5.57635404	     40.76295327	     -9.52655215	      4.29506909	     45.40313283	     45.40313283	     10.28069128	    -17.39295235	     14.42444056	    -12.20569107	      6.30691031	      4.07199574	     37.02142438	    -18.58650105	     -1.06495987	     47.78220048	     45.40232707	      0.00000000	      0.00000000	     -0.44809509	     -7.40835677	      0.34158525	     24.39475681	     45.86629921	      0.00000000	      0.00000000
     15.03428571	     -5.36642373	     -5.96254471	      3.52612025	      1.00106840	      0.92826994	      0.49645434	      5.39441066	      4.77102685	    -17.11464640	      9.25651212	      9.25651212	     11.10084294	      3.62573600	     -5.60612899	     40.66956403	     -9.08500454	      4.55083969	     41.93819486	     41.93819486	     10.25878116	    -16.52579780	     13.94756837	    -12.21784723	      6.30608906	      3.72696181	     38.65676094	    -18.33606256	     -1.03223772	     49.64634463	     45.34432892	      0.00000000	      0.00000000	     -1.88002690	     -7.45998589	      0.28497711	     23.05660255	     45.86645401	      0.00000000	      0.00000000
